<svg id="visual" viewBox="0 0 960 540" width="960" height="540" xmlns="http://www.w3.org/2000/svg" xmlns:xlink="http://www.w3.org/1999/xlink" version="1.1"><rect x="0" y="0" width="960" height="540" fill="#ffffff"></rect><path d="M0 273L26.7 275.7C53.3 278.3 106.7 283.7 160 285.7C213.3 287.7 266.7 286.3 320 298.3C373.3 310.3 426.7 335.7 480 336.7C533.3 337.7 586.7 314.3 640 311.5C693.3 308.7 746.7 326.3 800 326C853.3 325.7 906.7 307.3 933.3 298.2L960 289L960 541L933.3 541C906.7 541 853.3 541 800 541C746.7 541 693.3 541 640 541C586.7 541 533.3 541 480 541C426.7 541 373.3 541 320 541C266.7 541 213.3 541 160 541C106.7 541 53.3 541 26.7 541L0 541Z" fill="#322f2e"></path><path d="M0 319L26.7 324.8C53.3 330.7 106.7 342.3 160 343.8C213.3 345.3 266.7 336.7 320 343.8C373.3 351 426.7 374 480 385.8C533.3 397.7 586.7 398.3 640 384.2C693.3 370 746.7 341 800 334.2C853.3 327.3 906.7 342.7 933.3 350.3L960 358L960 541L933.3 541C906.7 541 853.3 541 800 541C746.7 541 693.3 541 640 541C586.7 541 533.3 541 480 541C426.7 541 373.3 541 320 541C266.7 541 213.3 541 160 541C106.7 541 53.3 541 26.7 541L0 541Z" fill="#292726"></path><path d="M0 406L26.7 402.3C53.3 398.7 106.7 391.3 160 395C213.3 398.7 266.7 413.3 320 409.7C373.3 406 426.7 384 480 378.2C533.3 372.3 586.7 382.7 640 382.3C693.3 382 746.7 371 800 367.7C853.3 364.3 906.7 368.7 933.3 370.8L960 373L960 541L933.3 541C906.7 541 853.3 541 800 541C746.7 541 693.3 541 640 541C586.7 541 533.3 541 480 541C426.7 541 373.3 541 320 541C266.7 541 213.3 541 160 541C106.7 541 53.3 541 26.7 541L0 541Z" fill="#211f1e"></path><path d="M0 409L26.7 405.7C53.3 402.3 106.7 395.7 160 393.5C213.3 391.3 266.7 393.7 320 395.2C373.3 396.7 426.7 397.3 480 405.3C533.3 413.3 586.7 428.7 640 429C693.3 429.3 746.7 414.7 800 413.5C853.3 412.3 906.7 424.7 933.3 430.8L960 437L960 541L933.3 541C906.7 541 853.3 541 800 541C746.7 541 693.3 541 640 541C586.7 541 533.3 541 480 541C426.7 541 373.3 541 320 541C266.7 541 213.3 541 160 541C106.7 541 53.3 541 26.7 541L0 541Z" fill="#191716"></path><path d="M0 480L26.7 473.3C53.3 466.7 106.7 453.3 160 452.3C213.3 451.3 266.7 462.7 320 462.2C373.3 461.7 426.7 449.3 480 449.8C533.3 450.3 586.7 463.7 640 465.3C693.3 467 746.7 457 800 457.3C853.3 457.7 906.7 468.3 933.3 473.7L960 479L960 541L933.3 541C906.7 541 853.3 541 800 541C746.7 541 693.3 541 640 541C586.7 541 533.3 541 480 541C426.7 541 373.3 541 320 541C266.7 541 213.3 541 160 541C106.7 541 53.3 541 26.7 541L0 541Z" fill="#100d0c"></path><path d="M0 497L26.7 499.3C53.3 501.7 106.7 506.3 160 502.3C213.3 498.3 266.7 485.7 320 486.3C373.3 487 426.7 501 480 506C533.3 511 586.7 507 640 504.3C693.3 501.7 746.7 500.3 800 498.3C853.3 496.3 906.7 493.7 933.3 492.3L960 491L960 541L933.3 541C906.7 541 853.3 541 800 541C746.7 541 693.3 541 640 541C586.7 541 533.3 541 480 541C426.7 541 373.3 541 320 541C266.7 541 213.3 541 160 541C106.7 541 53.3 541 26.7 541L0 541Z" fill="#000000"></path></svg>